<?xml version="1.0" encoding="UTF-8" standalone="no"?>
<!-- Created with Inkscape (http://www.inkscape.org/) -->

<svg
   version="1.1"
   id="svg981"
   xml:space="preserve"
   width="682.66669"
   height="682.66669"
   viewBox="0 0 682.66669 682.66669"
   xmlns="http://www.w3.org/2000/svg"
   xmlns:svg="http://www.w3.org/2000/svg"><defs
     id="defs985"><clipPath
       clipPathUnits="userSpaceOnUse"
       id="clipPath999"><path
         d="M 0,512 H 512 V 0 H 0 Z"
         id="path997" /></clipPath></defs><g
     id="g987"
     transform="matrix(1.3333333,0,0,-1.3333333,0,682.66667)"><g
       id="g989"
       transform="translate(233.5747,87.6973)"><path
         d="M 0,0 -57.461,-38.659"
         style="fill:none;stroke:#000000;stroke-width:15;stroke-linecap:round;stroke-linejoin:round;stroke-miterlimit:10;stroke-dasharray:none;stroke-opacity:1"
         id="path991" /></g><g
       id="g993"><g
         id="g995"
         clip-path="url(#clipPath999)"><g
           id="g1001"
           transform="translate(116.7075,108.4912)"><path
             d="m 0,0 c 0,0 -0.755,32.467 15.027,59.48 9.91,16.961 16.201,35.789 17.778,55.37 l 3.316,41.172 c 0.402,4.999 4.576,8.849 9.59,8.849 15.383,0 28.228,-11.768 29.524,-27.096 2.639,-31.233 4.018,-70.317 27.079,-80.48 24.224,-10.673 79.513,48.666 79.513,48.666 l 25.68,40.546 c 7.243,11.434 19.834,18.364 33.369,18.364 9.566,0 15.707,-10.164 11.258,-18.632 L 236.419,116.332 C 229.273,102.73 220.838,89.846 211.231,77.855 L 175.447,33.195 C 165.011,20.17 153.384,8.177 140.729,-2.636"
             style="fill:none;stroke:#000000;stroke-width:15;stroke-linecap:round;stroke-linejoin:round;stroke-miterlimit:10;stroke-dasharray:none;stroke-opacity:1"
             id="path1003" /></g><g
           id="g1005"
           transform="translate(147.3931,10.2798)"><path
             d="m 0,0 -69.571,69.572 c -3.04,3.04 -3.04,7.969 0,11.009 l 22.73,22.73 c 3.04,3.04 7.969,3.04 11.009,0 L 33.739,33.739 c 3.04,-3.039 3.04,-7.968 0,-11.009 L 11.009,0 C 7.969,-3.04 3.04,-3.04 0,0 Z"
             style="fill:none;stroke:#000000;stroke-width:15;stroke-linecap:round;stroke-linejoin:round;stroke-miterlimit:10;stroke-dasharray:none;stroke-opacity:1"
             id="path1007" /></g><g
           id="g1009"
           transform="translate(104.7378,86.6748)"><path
             d="M 0,0 7.229,-7.229"
             style="fill:none;stroke:#000000;stroke-width:15;stroke-linecap:round;stroke-linejoin:round;stroke-miterlimit:10;stroke-dasharray:none;stroke-opacity:1"
             id="path1011" /></g><g
           id="g1013"
           transform="translate(355.9648,308.1919)"><path
             d="m 0,0 h 99.577 c 9.618,0 17.415,-7.797 17.415,-17.415 0,-9.618 -7.797,-17.415 -17.415,-17.415 h -399.084 c -9.618,0 -17.414,7.797 -17.414,17.415 0,9.618 7.796,17.415 17.414,17.415 H -30"
             style="fill:none;stroke:#000000;stroke-width:15;stroke-linecap:round;stroke-linejoin:round;stroke-miterlimit:10;stroke-dasharray:none;stroke-opacity:1"
             id="path1015" /></g><g
           id="g1017"
           transform="translate(118.7139,407.9268)"><path
             d="M 0,0 C -26.273,-26.804 -44.759,-61.27 -51.799,-99.735"
             style="fill:none;stroke:#000000;stroke-width:15;stroke-linecap:round;stroke-linejoin:round;stroke-miterlimit:10;stroke-dasharray:none;stroke-opacity:1"
             id="path1019" /></g><g
           id="g1021"
           transform="translate(445.0854,308.1919)"><path
             d="m 0,0 c -16.389,89.543 -94.808,157.412 -189.085,157.412 -42.985,0 -82.672,-14.108 -114.687,-37.946"
             style="fill:none;stroke:#000000;stroke-width:15;stroke-linecap:round;stroke-linejoin:round;stroke-miterlimit:10;stroke-dasharray:none;stroke-opacity:1"
             id="path1023" /></g><g
           id="g1025"
           transform="translate(275.5723,464.6074)"><path
             d="m 0,0 v 19.821 c 0,10.809 -8.763,19.572 -19.572,19.572 -10.81,0 -19.572,-8.763 -19.572,-19.572 V 0"
             style="fill:none;stroke:#000000;stroke-width:15;stroke-linecap:round;stroke-linejoin:round;stroke-miterlimit:10;stroke-dasharray:none;stroke-opacity:1"
             id="path1027" /></g><g
           id="g1029"
           transform="translate(325.7373,257.2212)"><path
             d="M 0,0 2.547,3.721 C 6.154,8.988 2.383,16.141 -4,16.141 c -17.719,0 -34.063,-9.549 -42.761,-24.985 l -17.224,-30.563 -47.461,-49.315"
             style="fill:none;stroke:#000000;stroke-width:15;stroke-linecap:round;stroke-linejoin:round;stroke-miterlimit:10;stroke-dasharray:none;stroke-opacity:1"
             id="path1031" /></g></g></g></g></svg>
